<svg width="64mm" height="64mm" version="1.1" viewBox="0 0 64 64" xmlns="http://www.w3.org/2000/svg"><g><rect x="3.68" y="3.68" width="56.6" height="56.6" ry="7.92" color="#000000" stop-color="#000000" stroke="#ff9500" stroke-linecap="round" stroke-linejoin="round" stroke-width="6.87"/><g transform="translate(.561 -.0139)" fill="#ffd42a" stroke="#ffd42a" stroke-linejoin="round"><g transform="translate(0 2.37e-5)" stroke-linecap="round" stroke-width="5.47"><rect transform="scale(-1,1)" x="-28" y="24.4" width="16.7" height="1.67" ry=".834" color="#000000" stop-color="#000000"/><rect transform="scale(-1,1)" x="-28" y="37.9" width="16.7" height="1.67" ry=".834" color="#000000" stop-color="#000000"/></g><path d="m49.5 29.9c0.249 0.0053 2.28 0.022 2.28 0.022v3.65s-1.82 0.0264-2.28 0.0264c-5.41 0-8.26 12.7-24.9 12.7 0-6.92-0.0296-22.3 0.0106-28.6 16.7-0.0244 19.6 12.1 24.9 12.2z" color="#000000" stop-color="#000000" stroke-width="5"/></g><rect x="48.1" y="29.5" width="6.72" height="4.52" color="#000000" fill="#ffd42a" stop-color="#000000" stroke="#ffd42a" stroke-width="4.16"/></g></svg>
