<svg width="64mm" height="64mm" version="1.1" viewBox="0 0 64 64" xml:space="preserve" xmlns="http://www.w3.org/2000/svg"><rect x="3.1" y="3.15" width="57.7" height="57.7" ry="8.07" color="#000000" stop-color="#000000" stroke="#ff8f00" stroke-linecap="round" stroke-linejoin="round" stroke-width="6.09"/><g fill="#ffe800" stroke="#ffe800"><g stroke-linejoin="round"><rect transform="scale(-1,1)" x="-23.6" y="23.2" width="18.2" height="1.82" ry=".911" color="#000000" stop-color="#000000" stroke-linecap="round" stroke-width="5.98"/><rect transform="scale(-1,1)" x="-23.6" y="37.9" width="18.2" height="1.82" ry=".911" color="#000000" stop-color="#000000" stroke-linecap="round" stroke-width="5.98"/><path d="m50.4 29.3c0.3 0.0069 2.74 0.0288 2.74 0.0288v4.77s-2.19 0.0345-2.74 0.0345c-6.51 0-9.11 15.8-30 15.5 0-9.04-0.0356-28.1 0.0128-36.3 20.1-0.0319 23.6 15.8 30 15.9z" color="#000000" stop-color="#000000" stroke-width="6.27"/></g><rect x="52.2" y="28.8" width="8.99" height="5.73" color="#000000" stop-color="#000000" stroke-width="5.41"/></g><path d="m32.8 31.5c0.016-0.36-0.224-0.415-0.621-0.427-1.67-0.117-4.97-0.932-4.97-4.82v-7.69c0-2.25 0-3.57-2.02-5.01-1.67-1.13-4.16-1.48-5.4-1.48-0.388 0-0.777 0-0.777 0.427 0 0.388 0.233 0.388 0.621 0.427 3.07 0.194 4.51 1.94 4.86 3.34 0.117 0.427 0.117 0.505 0.117 1.86v5.83c0 1.17 0 3.15 0.0777 3.53 0.505 2.56 2.99 3.57 4.51 4-4.58 1.32-4.58 4.08-4.58 5.17v6.99c0 2.8 0 3.65-0.932 4.62-0.699 0.699-1.59 1.63-4.31 1.79-0.194 0.0388-0.35 0.194-0.35 0.427 0 0.427 0.388 0.427 0.777 0.427 3.88 0 7.34-1.98 7.42-4.78v-7.11c0-3.65 0-4.27 1.01-5.36 0.544-0.544 1.59-1.59 4.04-1.75 0.338-0.0444 0.535-0.115 0.544-0.427z" fill="#bd6700" stroke="#bc6a00" stroke-width="1.62px"/><path d="m29.3 48.9c0.818-0.82 0.897-3.81 0.98-5.87 6.06e-4 -1.16-1.44e-4 -2.31-1.44e-4 -3.47 4.26-0.506 7.72-4.91 6.82-9.18-0.584-3.33-3.4-6.26-6.82-6.61-0.0464-2.62 0.134-5.25-0.166-7.85-0.187-0.914-0.624-1.59-0.499-1.83 0.0733-0.144 0.341-0.141 0.966 0.049 2.13 0.402 0.813 3.21 2.03 4.44 1.07 1.1 3.07 2.23 4.52 1.2 0.894-0.679 1.69-1.99 2.99-1.67 1.27 0.764 3.16 1.98 2.63 3.71-0.944 1.28-2.53 2.59-1.72 4.38 0.51 1.7 1.63 2.79 3.77 2.71 1.37-0.0353 1.48 5.67-0.52 5.49-1.74-0.0541-3.08 1.38-3.34 3.02-0.723 1.76 1.19 2.78 1.8 4.17 0.216 1.62-1.41 3.56-3.1 3.63-1.54-0.35-2.39-2.33-4.17-1.98-1.79 0.128-3.58 1.46-3.42 3.41 0.148 1.8-0.906 2.75-2.61 2.52-0.191 0.0061-0.424-0.12-0.216-0.176 0 0 0.0133-0.0549 0.0789-0.115z" color="#000000" fill="#bd6700" stop-color="#000000" stroke="#bc6a00" stroke-width=".382"/></svg>
