<svg width="64mm" height="64mm" version="1.1" viewBox="0 0 64 64" xml:space="preserve" xmlns="http://www.w3.org/2000/svg"><rect x="3.1" y="3.15" width="57.7" height="57.7" ry="8.07" color="#000000" stop-color="#000000" stroke="#ff8f00" stroke-linecap="round" stroke-linejoin="round" stroke-width="6.09"/><g fill="#ffe800" stroke="#ffe800" stroke-linejoin="round"><rect transform="scale(-1,1)" x="-22.2" y="23.2" width="18.2" height="1.82" ry=".911" color="#000000" stop-color="#000000" stroke-linecap="round" stroke-width="5.98"/><rect transform="scale(-1,1)" x="-22.2" y="37.9" width="18.2" height="1.82" ry=".911" color="#000000" stop-color="#000000" stroke-linecap="round" stroke-width="5.98"/><path d="m49.3 34.5c-6.65 0-9.31 16.1-30.7 15.8-0.0176-13-0.0181-25.9-0.016-36.7 21.4-0.307 24 15.8 30.7 15.8h10.5v5.01z" stop-color="#000000" stroke-width="6.41"/></g><path d="m28.1 48.4c-0.578 1.11-1.09 1.33-0.0559 1.38 3.34 0.155 1.34-3.88 4.76-5.74 3.42-1.87 4.26 3.92 7.46 0.46h5e-6c3.2-3.46-2.27-4.11-0.46-7.46s5.55-0.692 5.6-4.95c0.0459-4.26-4.44-1.83-5.6-4.95s3.68-4.8 0.46-7.46-3.58 2.37-7.46 0.46-0.682-5.59-4.46-5.9c-0.388-0.0316-0.939-0.0726-0.0976 1.41 0.526 0.925 0.41 8.77 0.33 8.76 3.92 0.369 6.99 3.67 6.99 7.68v6e-6c0 4.01-3.07 7.31-6.98 7.68-0.227 2.55 0.568 6.6-0.487 8.63z" fill="#bd6700" stop-color="#000000"/><path d="m26.7 36.1c-0.142 2.9 0.061 6.31-0.152 10.9-0.22 4.58-10.3 6.99-9.64 3.76 0.4-2.04 3.5 0.03 5.27-3.23 0.593-1.05 0.089-7.67 0.258-10.4 0.16-2.54 2.67-5.13 3.19-5.13-0.518-0.0012-3.03-2.59-3.19-5.13-0.169-2.73 0.335-9.35-0.258-10.4-1.77-3.26-4.87-1.19-5.27-3.23-0.63-3.23 9.42-0.824 9.64 3.76 0.213 4.59 0.0104 8 0.152 10.9 0.142 2.87 5.3 2.53 5.3 4.1s-5.16 1.23-5.3 4.1z" fill="#bc6a00"/></svg>
